<svg width="72" height="72" viewBox="0 0 72 72" fill="none" xmlns="http://www.w3.org/2000/svg">
<circle cx="36" cy="36" r="36" fill="#FFCB47"/>
<path d="M13 38.7464C13 32.0478 16.9339 26.4657 24.8017 22L26.0087 24.0096C22.9689 25.7065 20.4208 27.8501 18.3644 30.4402C16.3975 33.0303 15.414 35.7097 15.414 38.4785C15.414 41.2472 16.174 43.4354 17.6939 45.0431C19.3032 46.6507 21.1361 47.4545 23.1924 47.4545C24.0865 47.4545 24.5335 47.0973 24.5335 46.3828C24.5335 45.5789 24.1312 45.1324 23.3265 45.0431C21.0019 44.5072 19.8397 42.8102 19.8397 39.9522C19.8397 38.0766 20.5102 36.5582 21.8513 35.3971C23.2818 34.1467 24.9806 33.5215 26.9475 33.5215C29.0039 33.5215 30.7026 34.2807 32.0437 35.799C33.4742 37.2281 34.1895 39.1037 34.1895 41.4258C34.1895 43.748 33.2507 45.7576 31.3732 47.4545C29.585 49.1515 27.171 50 24.1312 50C21.0914 50 18.4538 48.9729 16.2187 46.9187C14.0729 44.8644 13 42.1404 13 38.7464ZM37.8105 38.7464C37.8105 32.0478 41.7444 26.4657 49.6122 22L50.8192 24.0096C47.7794 25.7065 45.2313 27.8501 43.1749 30.4402C41.208 33.0303 40.2245 35.7097 40.2245 38.4785C40.2245 41.2472 40.9845 43.4354 42.5044 45.0431C44.1137 46.6507 45.9466 47.4545 48.0029 47.4545C48.897 47.4545 49.344 47.0973 49.344 46.3828C49.344 45.5789 48.9417 45.1324 48.137 45.0431C45.8124 44.5072 44.6501 42.8102 44.6501 39.9522C44.6501 38.0766 45.3207 36.5582 46.6618 35.3971C48.0923 34.1467 49.7911 33.5215 51.758 33.5215C53.8144 33.5215 55.5131 34.2807 56.8542 35.799C58.2847 37.2281 59 39.1037 59 41.4258C59 43.748 58.0612 45.7576 56.1837 47.4545C54.3955 49.1515 51.9815 50 48.9417 50C45.9018 50 43.2643 48.9729 41.0292 46.9187C38.8834 44.8644 37.8105 42.1404 37.8105 38.7464Z" fill="white"/>
</svg>
